<svg width="60" height="60" viewBox="0 0 60 60" fill="none" xmlns="http://www.w3.org/2000/svg">
<circle cx="29.7833" cy="30.0509" r="29.2442" fill="#79CFDC"/>
<path d="M37.2957 17.1836C39.4889 17.1836 41.6847 18.041 43.3194 19.7618C46.5885 23.2036 46.584 28.6548 43.3194 32.0989L31.2961 44.7829C31.0081 45.0859 30.6034 45.2581 30.1793 45.2581C29.755 45.2581 29.3503 45.0857 29.0623 44.7827C25.0502 40.5583 21.0391 36.3351 17.0275 32.1106C13.7584 28.6688 13.7584 23.2276 17.0275 19.7853C20.2965 16.3435 25.7934 16.3433 29.0623 19.7853L30.1555 20.9299L31.2722 19.7621C32.9066 18.0412 35.1025 17.1836 37.2957 17.1836Z" fill="#BD00FF"/>
</svg>
