<svg width="176" height="61" viewBox="0 0 176 61" fill="none" xmlns="http://www.w3.org/2000/svg">
<g clip-path="url(#clip0_212_4146)">
<path d="M136.252 13.8447C136.359 13.7733 136.484 13.7376 136.573 13.6484C137.929 12.2925 139.589 11.5432 141.444 11.1328C143.424 10.7046 145.387 10.7582 147.314 11.222C151.97 12.3282 155.396 15.0757 157.537 19.3754C158.447 21.1774 158.946 23.1042 159.142 25.1203C159.321 26.8687 159.178 28.5814 158.857 30.2942C158.233 33.5769 156.716 36.378 154.29 38.6616C152.702 40.1603 150.846 41.1951 148.759 41.873C147.118 42.3904 145.423 42.6937 143.728 42.6402C138.179 42.444 133.772 40.0889 130.811 35.3075C129.74 33.5769 129.027 31.6858 128.777 29.6697C128.67 28.7955 128.563 27.9035 128.563 27.0114C128.545 18.2336 128.545 9.43792 128.545 0.660102C128.545 0.0535045 128.545 0.0356634 129.152 0.0356634C131.275 0.0356634 133.398 0.0535045 135.521 0.0178223C135.985 0.0178223 136.092 0.178392 136.092 0.606579C136.074 4.74571 136.092 8.90269 136.092 13.0418C136.092 13.2916 136.092 13.5414 136.092 13.7912C136.145 13.7912 136.199 13.809 136.252 13.8447ZM151.596 26.7438C151.649 25.3343 151.31 24.0141 150.686 22.7831C149.615 20.6421 147.885 19.2684 145.583 18.6796C143.87 18.2336 142.229 18.4655 140.677 19.3041C138.304 20.5886 136.823 22.6047 136.306 25.2273C135.895 27.3325 136.217 29.3664 137.341 31.2219C138.554 33.2379 140.338 34.5225 142.639 34.9329C144.352 35.2362 146.047 34.9507 147.564 34.023C150.293 32.3459 151.506 29.866 151.596 26.7438Z" fill="#623493"/>
<path d="M123.194 33.3808C123.194 36.0748 123.176 38.7688 123.211 41.445C123.211 41.9088 123.069 42.0159 122.623 42.0159C120.375 41.998 118.127 41.998 115.897 42.0159C115.451 42.0159 115.308 41.8731 115.343 41.4628C115.361 41.213 115.361 40.9632 115.343 40.7135C115.326 40.321 115.219 40.3031 114.88 40.4637C113.898 40.9276 112.935 41.4806 111.9 41.8375C110.883 42.1764 109.813 42.3727 108.742 42.5511C107.351 42.783 105.959 42.4976 104.585 42.2835C102.123 41.891 99.9109 40.8919 97.9662 39.3397C96.1108 37.8767 94.7905 36.0391 93.8449 33.8982C93.0421 32.0605 92.5604 30.1337 92.5425 28.1355C92.5247 26.8509 92.4712 25.5485 92.6317 24.264C92.8815 22.1944 93.5595 20.2319 94.6121 18.4121C96.2713 15.5218 98.6263 13.3987 101.695 12.1142C103.461 11.3649 105.317 10.9902 107.244 10.9545C108.368 10.9367 109.509 10.901 110.616 11.0259C112.239 11.2043 113.791 11.7395 115.254 12.5067C117.556 13.7199 119.429 15.4148 120.839 17.6092C121.641 18.8581 122.23 20.1784 122.623 21.6057C123.086 23.247 123.229 24.9241 123.211 26.619C123.176 28.867 123.194 31.1328 123.194 33.3808ZM107.904 35.0043C109.688 35.1471 111.757 33.9517 112.846 32.8812C113.916 31.8108 114.683 30.5797 115.165 29.1346C115.54 27.9749 115.665 26.8153 115.486 25.6199C115.201 23.818 114.434 22.2301 113.167 20.9099C112.15 19.8394 110.919 19.0544 109.492 18.6797C108.136 18.3229 106.762 18.4299 105.406 18.8224C102.373 19.7145 100.732 22.2123 100.268 24.8527C100 26.3871 100.054 27.9214 100.464 29.4379C100.785 30.6868 101.356 31.8108 102.23 32.7207C103.711 34.2907 105.567 35.0043 107.904 35.0043Z" fill="#623493"/>
<path d="M46.3336 10.7939C49.4379 10.8296 52.2925 11.6325 54.8794 13.3274C57.1453 14.826 58.8402 16.8421 60.0177 19.2863C60.7135 20.7493 61.213 22.2658 61.4271 23.8536C61.6234 25.3701 61.7126 26.9045 61.552 28.4745C61.2844 30.8473 60.5886 33.0418 59.3932 35.0935C58.0552 37.395 56.1997 39.2148 53.8982 40.5529C52.6672 41.2665 51.3826 41.8196 50.0088 42.1408C49.206 42.337 48.3674 42.3905 47.5468 42.5154C45.9232 42.7474 44.2997 42.5154 42.7297 42.1586C40.3925 41.6055 38.3051 40.5172 36.4496 38.9472C34.2016 37.0382 32.6673 34.6475 31.7395 31.8821C31.3114 30.6332 31.0259 29.3308 31.0437 28.0106C31.0437 26.8331 30.9724 25.6556 31.0973 24.4959C31.2757 22.8367 31.7574 21.2488 32.4532 19.7323C33.7913 16.8421 35.8073 14.5763 38.5548 12.9527C40.0713 12.0607 41.677 11.3827 43.4255 11.1329C44.3889 11.008 45.3523 10.9188 46.3336 10.7939ZM54.0231 26.0659C54.0588 25.0311 53.6306 23.479 52.7385 22.0338C51.6502 20.2676 50.098 19.1614 48.1177 18.6797C47.0472 18.4121 45.9589 18.3943 44.8527 18.6083C43.2114 18.9295 41.7841 19.6431 40.6958 20.9098C38.5548 23.4254 38.1088 26.3514 39.0187 29.4201C39.7502 31.9178 41.3916 33.7376 43.9429 34.594C46.4049 35.4325 48.7421 35.0578 50.8117 33.5413C53.0775 31.8821 54.0052 29.5093 54.0231 26.0659Z" fill="#623493"/>
<path d="M22.3908 23.4074C22.2123 23.0684 22.1053 22.8008 21.9626 22.551C20.9813 20.7669 19.5719 19.5002 17.6272 18.8579C13.8092 17.5912 10.1339 19.6429 8.59958 22.9971C8.06435 24.1567 7.79673 25.3521 7.70753 26.6366C7.5648 28.5813 8.02867 30.3119 9.15265 31.8641C10.2588 33.3984 11.7218 34.3975 13.5772 34.8079C16.3961 35.4323 18.8404 34.7187 20.8743 32.7026C21.4273 32.1495 21.8555 31.4359 22.3551 30.7579C22.4264 30.8115 22.5513 30.9007 22.6405 30.9899C24.2462 32.5956 25.8519 34.2191 27.4755 35.807C27.7609 36.0924 27.7788 36.2887 27.529 36.592C25.8698 38.7151 23.818 40.3386 21.3381 41.3912C19.7681 42.0514 18.1267 42.4439 16.4318 42.5509C11.5077 42.8542 7.3507 41.1593 3.97874 37.5911C2.42656 35.9497 1.35609 33.9872 0.678132 31.8106C0.000170524 29.6696 -0.142558 27.4752 0.142899 25.2986C0.874384 19.6786 3.60407 15.2897 8.6531 12.5243C11.1687 11.1149 13.9162 10.651 16.7708 10.9543C21.356 11.436 24.942 13.5948 27.5647 17.3771C27.9215 17.8945 27.9215 17.9124 27.4576 18.3762C25.9054 19.9284 24.3711 21.4627 22.8189 23.0149C22.694 23.122 22.587 23.229 22.3908 23.4074Z" fill="#623493"/>
<path d="M66.8501 21.0168C66.8501 14.2193 66.8501 7.43972 66.8501 0.642261C66.8501 0.0178223 66.8501 0.0178223 67.4746 0.0178223C69.562 0.0178223 71.6316 0.0178223 73.719 0.0178223C74.4148 0.0178223 74.4148 0.0178223 74.4148 0.731466C74.4148 13.8982 74.4148 27.0649 74.4148 40.2317C74.4148 40.642 74.3969 41.0702 74.4148 41.4805C74.4326 41.873 74.3077 42.0336 73.8795 42.0336C71.6851 42.0158 69.4728 42.0158 67.2783 42.0336C66.8858 42.0336 66.8145 41.873 66.8145 41.5341C66.8323 38.8401 66.8145 36.146 66.8145 33.4699C66.8501 29.3129 66.8501 25.1738 66.8501 21.0168Z" fill="#623493"/>
<path d="M87.2245 21.0346C87.2245 27.7964 87.2245 34.5582 87.2245 41.32C87.2245 42.0158 87.2245 42.0158 86.5109 42.0158C84.4235 42.0158 82.3182 41.9979 80.2308 42.0336C79.8026 42.0336 79.6777 41.9087 79.6777 41.4805C79.6956 27.8499 79.6956 14.2193 79.6777 0.588737C79.6777 0.124869 79.8205 0.0178223 80.2665 0.0178223C82.3896 0.0356634 84.5127 0.0356634 86.6358 0.0356634C87.2245 0.0356634 87.2245 0.0356634 87.2245 0.62442C87.2245 7.42188 87.2245 14.2193 87.2245 21.0346Z" fill="#623493"/>
<path d="M175.467 37.5198C175.52 40.4457 173.183 42.8007 170.239 42.8186C167.242 42.8364 164.976 40.4992 164.923 37.5911C164.869 34.576 167.331 32.2209 170.186 32.2209C173.058 32.2209 175.52 34.5581 175.467 37.5198Z" fill="#623493"/>
<path d="M175.468 16.2711C175.486 19.1792 173.22 21.5699 170.169 21.5521C167.207 21.5343 164.924 19.2328 164.924 16.2176C164.924 13.2917 167.404 10.9188 170.294 10.9723C173.131 11.0258 175.557 13.3987 175.468 16.2711Z" fill="#623493"/>
<path d="M44.2458 59.3751C44.4064 58.7864 44.5669 58.1798 44.7275 57.591C44.9595 56.7168 45.1914 55.8426 45.4233 54.9684C45.5125 54.5937 45.7801 54.558 46.1013 54.5759C46.4403 54.5937 46.7614 54.5581 46.8863 54.9862C47.2431 56.3065 47.6178 57.6446 47.9924 58.9648C48.0281 59.1075 48.1709 59.2324 48.2601 59.3751C48.3493 59.2324 48.4741 59.1075 48.5277 58.9648C48.9023 57.6981 49.2592 56.4314 49.6517 55.1825C49.8479 54.5402 50.0263 54.4688 50.74 54.7008C50.5794 55.236 50.401 55.7534 50.2404 56.2886C49.8479 57.484 49.4376 58.6615 49.0272 59.8569C48.8667 60.3207 47.9389 60.6419 47.6178 60.2672C47.4037 60.0174 47.368 59.6249 47.2788 59.2859C46.9755 58.1619 46.6722 57.0201 46.3689 55.8961C46.3511 55.8069 46.2262 55.7356 46.1548 55.6464C46.0656 55.7356 45.9407 55.8069 45.905 55.914C45.5304 57.2699 45.1735 58.6258 44.8346 59.9996C44.7632 60.2672 44.6562 60.3921 44.3885 60.3742C44.1923 60.3742 43.996 60.4099 43.8176 60.3564C43.6392 60.3029 43.3894 60.178 43.3359 60.0174C42.7472 58.3582 42.1941 56.6811 41.641 55.0041C41.6053 54.897 41.6945 54.6294 41.7481 54.6294C42.0157 54.6116 42.3725 54.451 42.5331 54.8078C42.6936 55.1468 42.8007 55.5393 42.9077 55.8961C43.211 56.9309 43.4965 57.9657 43.8176 59.0005C43.8711 59.1611 43.996 59.2859 44.1031 59.4108C44.1566 59.393 44.1923 59.393 44.2458 59.3751Z" fill="#623493"/>
<path d="M7.27822 54.8792C8.02755 55.2539 8.15243 56.2887 7.56368 56.9488C7.43879 57.0737 7.29606 57.1807 7.17117 57.2878C7.47447 57.6446 7.84914 57.8765 7.95618 58.2155C8.34869 59.4108 7.93834 60.178 6.58242 60.3029C5.49411 60.4099 4.38796 60.3386 3.28181 60.3207C3.17477 60.3207 2.99636 60.1066 2.99636 59.9996C2.97852 58.3225 2.97852 56.6455 2.97852 54.9684C2.97852 54.7186 3.08556 54.5938 3.35318 54.5938L7.27822 54.8792ZM5.11945 57.5732C5.11945 57.5911 5.11945 57.6267 5.10161 57.6446C4.83399 57.6446 4.56637 57.6446 4.29876 57.6446C3.95978 57.6446 3.76352 57.8051 3.76352 58.162C3.76352 58.5545 3.76352 58.9291 3.76352 59.3216C3.76352 59.6428 3.94193 59.8212 4.26307 59.8034C4.99456 59.7498 5.74389 59.732 6.47537 59.6249C7.0106 59.5536 7.2247 59.2681 7.24254 58.8043C7.26038 58.269 7.06413 57.9479 6.54674 57.823C6.08287 57.6981 5.60116 57.6446 5.11945 57.5732ZM5.04808 57.1093C5.04808 57.1272 5.04808 57.145 5.06592 57.1807C5.54763 57.1093 6.02934 57.0558 6.49321 56.9488C6.93924 56.8417 7.08197 56.5027 7.04629 56.0567C7.0106 55.6107 6.74299 55.3609 6.35048 55.3252C5.63684 55.2539 4.9232 55.236 4.22739 55.236C4.08466 55.236 3.83489 55.4323 3.81705 55.5393C3.78136 56.0032 3.72784 56.5206 3.90625 56.9309C3.99546 57.1093 4.60206 57.0558 4.95888 57.1093C4.97672 57.1093 5.0124 57.1093 5.04808 57.1093Z" fill="#623493"/>
<path d="M133.613 60.2671C132.97 60.4456 132.845 60.4099 132.542 59.9282C132.275 59.4821 132.025 59.0183 131.721 58.6079C131.597 58.4474 131.347 58.3046 131.151 58.2868C130.722 58.2511 130.294 58.3046 129.866 58.2868C129.491 58.2868 129.313 58.4295 129.331 58.822C129.349 59.2145 129.313 59.6249 129.331 60.0174C129.349 60.3385 129.134 60.3742 128.903 60.3742C128.653 60.3742 128.492 60.3207 128.492 60.0352C128.492 58.3403 128.492 56.6454 128.492 54.9505C128.492 54.6829 128.635 54.5937 128.885 54.5937C129.902 54.5937 130.901 54.558 131.918 54.6115C133.47 54.7007 134.255 56.1815 133.47 57.5196C133.327 57.7516 133.042 57.9121 132.792 58.0549C132.506 58.1976 132.453 58.3582 132.613 58.6079C132.881 59.0361 133.149 59.4643 133.416 59.8925C133.488 59.9995 133.541 60.1244 133.613 60.2671ZM130.74 57.5375C131.061 57.5196 131.4 57.5375 131.721 57.5196C132.435 57.4661 132.81 57.0914 132.828 56.4313C132.828 55.7712 132.471 55.343 131.775 55.2895C131.097 55.2538 130.401 55.2716 129.723 55.2538C129.438 55.2538 129.331 55.3787 129.331 55.6641C129.331 56.1459 129.349 56.6097 129.331 57.0914C129.331 57.4126 129.491 57.5196 129.777 57.5196C130.08 57.5375 130.419 57.5375 130.74 57.5375Z" fill="#623493"/>
<path d="M91.6309 57.4305C91.7557 56.8596 91.845 56.3065 92.0234 55.7891C92.4337 54.5938 94.0751 54.2548 95.0385 54.3975C95.9306 54.5403 96.7513 54.8079 97.1794 55.7178C97.7325 56.8774 97.6255 59.0719 96.6977 59.8569C96.0019 60.4457 95.1812 60.5884 94.3249 60.517C93.3436 60.4457 92.4159 60.1424 92.0412 59.1076C91.8093 58.5902 91.7557 58.0193 91.6309 57.4305ZM96.6085 57.4841C96.5907 57.4841 96.5907 57.4841 96.5728 57.4841C96.5728 57.2878 96.5728 57.0915 96.5728 56.9131C96.5372 55.9676 96.0019 55.361 95.0028 55.1469C94.2892 55.0041 93.1295 55.3431 92.8262 56.146C92.5764 56.7882 92.5586 57.4305 92.6478 58.1085C92.7727 59.0719 93.3436 59.6963 94.307 59.7856C95.2704 59.8748 96.1982 59.5715 96.5015 58.5367C96.5907 58.2155 96.5728 57.8409 96.6085 57.4841Z" fill="#623493"/>
<path d="M55.2367 55.9141C55.2189 56.0925 55.201 56.2531 55.201 56.4315C55.201 57.5912 55.201 58.7508 55.201 59.9105C55.201 60.1781 55.1832 60.3744 54.8264 60.3744C54.4695 60.3744 54.416 60.196 54.416 59.9105C54.4339 58.3405 54.416 56.7705 54.4339 55.1826C54.4339 54.9864 54.5231 54.6474 54.6123 54.6296C54.9512 54.576 55.3259 54.4511 55.5935 54.808C55.9504 55.2718 56.2893 55.7357 56.6462 56.1996C57.2706 57.0381 57.9129 57.8945 58.5373 58.733C58.6265 58.8579 58.7336 58.9649 58.8406 59.0898C58.8763 59.0898 58.9298 59.072 58.9655 59.072C59.0012 58.8936 59.0547 58.733 59.0547 58.5546C59.0547 57.3949 59.0547 56.2353 59.0369 55.0756C59.0369 54.808 59.0547 54.6117 59.3937 54.6117C59.7683 54.6117 59.804 54.808 59.804 55.0934C59.804 56.6456 59.804 58.2156 59.7862 59.7678C59.7862 59.9819 59.697 60.3387 59.5899 60.3565C59.251 60.4279 58.8584 60.4993 58.5908 60.1068C58.1805 59.518 57.7345 58.9293 57.3063 58.3405C56.771 57.609 56.218 56.8954 55.6827 56.1639C55.5935 56.039 55.4508 55.9676 55.3438 55.8606C55.3259 55.8784 55.2902 55.8963 55.2367 55.9141Z" fill="#623493"/>
<path d="M38.2865 57.4483C38.3579 58.2155 38.233 58.9648 37.7691 59.5714C37.0555 60.4813 36.0385 60.624 34.9859 60.4991C34.4685 60.4456 33.9511 60.2315 33.5051 59.9639C32.8271 59.5536 32.613 58.8042 32.5774 58.0727C32.5417 57.3769 32.613 56.6455 32.7736 55.9675C32.9699 55.2003 33.5586 54.7721 34.3258 54.5402C35.093 54.3083 35.8423 54.3618 36.6095 54.558C37.4837 54.79 38.1973 55.682 38.2865 56.699C38.3044 56.9666 38.2865 57.2164 38.2865 57.4483ZM35.4498 55.129C34.4685 55.129 33.7549 55.6107 33.5229 56.5206C33.4159 56.9488 33.4516 57.3948 33.4516 57.8408C33.4516 58.9113 33.9868 59.5892 35.0394 59.7855C35.8066 59.9282 36.9127 59.6784 37.2696 58.6793C37.3766 58.3939 37.448 58.0727 37.4658 57.7694C37.5372 56.2351 37.0376 55.1825 35.4498 55.129Z" fill="#623493"/>
<path d="M111.49 55.789C111.472 55.9675 111.418 56.1459 111.418 56.3243C111.418 57.5018 111.418 58.6793 111.436 59.839C111.436 60.1423 111.401 60.3564 111.008 60.3385C110.616 60.3207 110.651 60.0709 110.651 59.8211C110.669 58.2868 110.669 56.7525 110.705 55.236C110.705 55.0219 110.758 54.7186 110.901 54.6294C111.169 54.4331 111.722 54.6115 111.918 54.897C112.739 55.9675 113.541 57.0558 114.344 58.1441C114.576 58.4652 114.844 58.7507 115.076 59.0718C115.112 59.054 115.165 59.054 115.201 59.0361C115.236 58.8756 115.308 58.715 115.308 58.5544C115.308 57.4304 115.29 56.2886 115.29 55.1646C115.29 54.9148 115.183 54.6115 115.629 54.5937C116.057 54.5758 116.075 54.8078 116.075 55.1289C116.075 56.6811 116.075 58.2154 116.057 59.7676C116.057 59.9639 115.986 60.285 115.879 60.3207C115.558 60.4099 115.201 60.4813 114.933 60.1423C114.398 59.4465 113.88 58.7328 113.363 58.037C112.881 57.3947 112.4 56.7525 111.918 56.1102C111.829 55.9853 111.74 55.8426 111.65 55.7177C111.597 55.7355 111.543 55.7712 111.49 55.789Z" fill="#623493"/>
<path d="M74.5584 60.303C74.0767 60.41 73.7199 60.4457 73.3988 60.1603C73.1847 59.964 72.9884 59.9818 72.7208 60.1067C71.6325 60.6063 70.5085 60.749 69.4202 60.1781C68.2962 59.6072 68.2249 58.055 69.2953 57.3592C69.6878 57.1094 69.777 56.9132 69.5629 56.485C69.1169 55.5751 69.6343 54.7187 70.6334 54.5403C71.2935 54.4154 71.9358 54.3797 72.5424 54.7009C72.7922 54.8258 73.0063 55.0755 73.149 55.3075C73.2382 55.4502 73.2204 55.8427 73.1312 55.8605C72.8992 55.9497 72.6316 56.0033 72.471 55.6464C72.2034 55.0042 71.6325 55.022 71.0616 55.0577C70.6156 55.0755 70.3479 55.3075 70.2052 55.7178C70.0268 56.253 70.348 56.6455 70.6869 56.9667C71.3114 57.5554 71.9893 58.0907 72.6495 58.6438C72.8992 58.8578 73.1133 58.8578 73.2025 58.501C73.2739 58.2334 73.3453 57.9479 73.3453 57.6803C73.3631 57.3592 73.5237 57.2878 73.8091 57.3057C74.1481 57.3235 74.0946 57.5554 74.0589 57.7517C73.9875 58.1085 73.9697 58.501 73.7913 58.8222C73.5593 59.286 73.6486 59.5715 74.0411 59.8391C74.2195 59.964 74.3444 60.1067 74.5584 60.303ZM72.5246 59.4109C71.8466 58.8222 71.1686 58.2156 70.455 57.6268C70.3658 57.5554 70.2052 57.5554 70.0803 57.5911C69.4916 57.7339 69.1169 58.5902 69.3667 59.1433C69.6521 59.7321 70.6691 60.1781 71.4006 59.9818C71.7931 59.8748 72.2748 59.9283 72.5246 59.4109Z" fill="#623493"/>
<path d="M158.785 57.502C158.892 57.9302 158.946 58.3762 159.106 58.7865C159.428 59.5715 160.534 59.9997 161.408 59.7499C161.979 59.5894 162.443 59.3039 162.585 58.6795C162.675 58.3048 162.978 58.3405 163.228 58.4119C163.335 58.4475 163.442 58.7152 163.424 58.8579C163.335 59.5537 162.942 60.0711 162.282 60.3209C161.354 60.6598 160.409 60.6777 159.499 60.3209C158.643 59.9819 158.161 59.3218 158.107 58.4297C158.054 57.5733 157.893 56.6813 158.304 55.8963C158.518 55.4859 158.857 55.0577 159.249 54.8436C160.32 54.237 161.444 54.3084 162.532 54.808C163.049 55.0577 163.317 55.5216 163.424 56.0568C163.46 56.2174 163.37 56.5207 163.263 56.5564C162.996 56.6456 162.728 56.6278 162.585 56.2709C162.229 55.3789 161.354 55.0042 160.427 55.2005C159.285 55.4146 158.857 56.2709 158.785 57.502Z" fill="#623493"/>
<path d="M85.5831 60.5883C84.5304 60.4456 83.567 60.3385 83.0139 59.3572C82.3895 58.2333 82.4965 56.0388 83.2994 55.2181C84.0487 54.4331 85.0121 54.2725 86.0469 54.4509C86.4573 54.5223 86.8676 54.6472 87.2244 54.8256C87.7418 55.0754 87.9916 55.5571 88.0273 56.128C88.0273 56.2707 87.9381 56.5027 87.831 56.5384C87.6169 56.5919 87.385 56.6454 87.2423 56.3243C86.6714 55.1111 85.3333 54.7186 84.2807 55.5036C83.9595 55.7355 83.7454 56.1637 83.6205 56.5562C83.4421 57.1093 83.4778 57.6802 83.567 58.2689C83.7633 59.6605 85.2084 59.9817 86.1005 59.7497C86.6714 59.5892 87.0817 59.2859 87.2423 58.6793C87.3315 58.3225 87.6169 58.3581 87.8489 58.4117C87.9559 58.4473 88.063 58.6971 88.0451 58.8399C87.9916 59.5713 87.5813 60.053 86.9211 60.3028C86.4573 60.4456 85.9756 60.4991 85.5831 60.5883Z" fill="#623493"/>
<path d="M106.619 56.6098C106.565 57.3234 106.547 58.0371 106.423 58.7329C106.119 60.3029 105.316 60.3921 104.228 60.517C103.318 60.624 102.355 60.4992 101.766 59.6249C101.606 59.393 101.445 59.0897 101.445 58.8221C101.374 57.5375 101.374 56.2351 101.338 54.9506C101.338 54.6473 101.516 54.5938 101.784 54.5938C102.052 54.5938 102.159 54.7008 102.159 54.9684C102.159 55.8069 102.141 56.6633 102.176 57.5018C102.194 57.9479 102.266 58.3761 102.391 58.8043C102.587 59.4644 103.14 59.6785 103.764 59.7677C104.799 59.8926 105.62 59.2324 105.673 58.1798C105.727 57.145 105.745 56.1102 105.762 55.0755C105.762 54.79 105.816 54.5938 106.173 54.5938C106.53 54.5938 106.583 54.7722 106.583 55.0755C106.565 55.5929 106.583 56.1102 106.583 56.6276C106.565 56.6098 106.601 56.6098 106.619 56.6098Z" fill="#623493"/>
<path d="M167.332 56.7347C167.332 56.1638 167.332 55.575 167.332 55.0041C167.332 54.7365 167.403 54.5938 167.707 54.5938C167.992 54.5938 168.099 54.7187 168.099 55.0041C168.099 55.7356 168.081 56.4671 168.099 57.1807C168.117 57.6981 168.188 58.2155 168.295 58.7151C168.456 59.4109 169.187 59.8569 170.008 59.7677C170.829 59.6963 171.507 59.3038 171.56 58.3047C171.632 57.2164 171.685 56.1103 171.721 55.022C171.739 54.7008 171.828 54.5581 172.167 54.5759C172.399 54.5938 172.524 54.6652 172.524 54.9149C172.506 56.1103 172.542 57.3235 172.47 58.5188C172.399 59.732 171.542 60.4813 170.204 60.5349C169.241 60.5706 168.26 60.4992 167.689 59.5536C167.51 59.2503 167.385 58.8757 167.35 58.5188C167.296 57.9301 167.332 57.3413 167.332 56.7347C167.35 56.7347 167.35 56.7347 167.332 56.7347Z" fill="#623493"/>
<path d="M150.508 57.4484C150.508 56.6455 150.526 55.8427 150.508 55.0398C150.508 54.7008 150.597 54.5581 150.954 54.5581C152.132 54.5759 153.309 54.5759 154.469 54.5581C154.754 54.5581 154.933 54.6116 154.915 54.9506C154.915 55.2896 154.683 55.2896 154.451 55.2896C153.612 55.2896 152.792 55.3074 151.953 55.2896C151.507 55.2718 151.364 55.4502 151.4 55.8605C151.418 56.0746 151.4 56.3065 151.4 56.5206C151.4 57.1451 151.436 57.1807 152.042 57.1807C152.667 57.1807 153.291 57.1807 153.916 57.1807C154.148 57.1807 154.362 57.1807 154.38 57.5197C154.397 57.8587 154.165 57.8587 153.934 57.8587C153.256 57.8587 152.56 57.8766 151.882 57.8587C151.543 57.8587 151.4 58.0014 151.4 58.3404C151.4 58.8935 151.382 59.4466 151.4 59.9818C151.418 60.3386 151.222 60.3565 150.954 60.3565C150.686 60.3565 150.49 60.3386 150.49 59.9818C150.526 59.1433 150.526 58.3047 150.508 57.4484C150.526 57.4484 150.526 57.4484 150.508 57.4484Z" fill="#623493"/>
<path d="M136.77 54.665C137.572 54.4688 137.662 54.5223 138.001 55.1289C138.393 55.8604 138.803 56.574 139.232 57.3055C139.303 57.4304 139.428 57.5374 139.606 57.7515C139.945 57.1449 140.231 56.6097 140.534 56.0745C140.695 55.789 140.837 55.5036 140.998 55.2181C141.373 54.5223 141.39 54.5223 142.247 54.665C142.175 54.8256 142.122 54.9505 142.051 55.0932C141.462 56.1102 140.873 57.1628 140.249 58.1619C139.91 58.6971 140.017 59.2502 139.981 59.8033C139.963 60.3563 139.856 60.4634 139.41 60.3742C139.303 60.3563 139.232 60.1958 139.142 60.1066V60.0709C139.428 58.715 138.607 57.7337 137.983 56.6811C137.572 56.0031 137.198 55.3608 136.77 54.665Z" fill="#623493"/>
<path d="M11.1855 54.6474C11.9527 54.4868 12.0419 54.5404 12.3809 55.1291C12.7912 55.8784 13.2194 56.6278 13.6476 57.3771C13.826 57.6804 14.0044 57.6804 14.1829 57.3593C14.5932 56.6099 15.0035 55.8428 15.4139 55.0934C15.7172 54.5404 15.9134 54.4512 16.6092 54.6831C16.4308 55.0042 16.2703 55.3254 16.0918 55.6465C15.7529 56.2353 15.4317 56.8419 15.0392 57.3949C14.504 58.1443 14.1829 58.9471 14.3077 59.8748C14.3613 60.2674 14.1472 60.3922 13.8082 60.3209C13.7011 60.303 13.6298 60.1425 13.5406 60.0533V60.0176C13.7011 58.8579 13.2016 57.9302 12.5772 57.0203C12.1311 56.378 11.7565 55.6822 11.3461 55.0042C11.2926 54.915 11.2569 54.7901 11.1855 54.6474Z" fill="#623493"/>
<path d="M26.9053 54.5759C27.6368 54.5759 28.3683 54.5759 29.0819 54.5759C29.3139 54.5759 29.528 54.5938 29.5458 54.9149C29.5636 55.2539 29.3495 55.2896 29.0819 55.2896C28.7073 55.2896 28.3326 55.2896 27.9758 55.2896C27.4049 55.2896 27.3513 55.3431 27.3513 55.9319C27.3513 57.2521 27.3513 58.5724 27.3513 59.8926C27.3513 60.1424 27.3157 60.3208 27.0124 60.3386C26.6734 60.3565 26.5307 60.2494 26.5307 59.8926C26.5485 58.6794 26.5307 57.4484 26.5307 56.2352C26.5307 55.2718 26.5307 55.2717 25.5851 55.2717C25.2818 55.2717 24.9963 55.2539 24.693 55.2717C24.4432 55.2717 24.3184 55.1825 24.3184 54.9149C24.3184 54.6295 24.4432 54.5581 24.693 54.5581C25.4245 54.5938 26.156 54.5759 26.9053 54.5759Z" fill="#623493"/>
<path d="M122.337 54.5759C123.051 54.5759 123.765 54.5759 124.478 54.5759C124.746 54.5759 124.889 54.6295 124.889 54.9506C124.889 55.2717 124.71 55.3074 124.46 55.3074C124.068 55.3074 123.693 55.3074 123.301 55.3074C122.765 55.3074 122.676 55.3788 122.676 55.9319C122.658 57.145 122.676 58.3582 122.676 59.5893C122.676 59.7142 122.676 59.8569 122.676 59.9818C122.676 60.2851 122.516 60.3564 122.248 60.3564C121.963 60.3564 121.856 60.2494 121.856 59.9639C121.856 58.6615 121.856 57.3591 121.856 56.0389C121.856 55.3074 121.856 55.3074 121.106 55.3074C120.767 55.3074 120.428 55.3074 120.089 55.3074C119.857 55.3074 119.732 55.2361 119.732 54.9863C119.732 54.7365 119.822 54.5938 120.089 54.5938C120.821 54.5938 121.588 54.5759 122.337 54.5759Z" fill="#623493"/>
</g>
<defs>
<clipPath id="clip0_212_4146">
<rect width="175.467" height="60.5884" fill="white"/>
</clipPath>
</defs>
</svg>
