<svg width="240" height="183" viewBox="0 0 240 183" fill="none" xmlns="http://www.w3.org/2000/svg">
<rect width="240" height="143" fill="#F1693A"/>
<path d="M40.3338 67.5V50.7H43.4058V57.348H51.0858V50.7H54.1578V67.5H51.0858V60.228H43.4058V67.5H40.3338ZM62.2889 67.74C60.9849 67.74 59.8729 67.456 58.9529 66.888C58.0329 66.32 57.3289 65.564 56.8409 64.62C56.3609 63.676 56.1209 62.644 56.1209 61.524C56.1209 60.396 56.3609 59.356 56.8409 58.404C57.3289 57.452 58.0329 56.692 58.9529 56.124C59.8729 55.548 60.9849 55.26 62.2889 55.26C63.5929 55.26 64.7049 55.548 65.6249 56.124C66.5449 56.692 67.2449 57.452 67.7249 58.404C68.2129 59.356 68.4569 60.396 68.4569 61.524C68.4569 62.644 68.2129 63.676 67.7249 64.62C67.2449 65.564 66.5449 66.32 65.6249 66.888C64.7049 67.456 63.5929 67.74 62.2889 67.74ZM62.2889 65.292C63.2889 65.292 64.0569 64.944 64.5929 64.248C65.1369 63.544 65.4089 62.636 65.4089 61.524C65.4089 60.396 65.1369 59.48 64.5929 58.776C64.0569 58.064 63.2889 57.708 62.2889 57.708C61.2969 57.708 60.5289 58.064 59.9849 58.776C59.4409 59.48 59.1689 60.396 59.1689 61.524C59.1689 62.636 59.4409 63.544 59.9849 64.248C60.5289 64.944 61.2969 65.292 62.2889 65.292ZM72.4998 67.5L68.9958 55.5H71.8998L73.9638 63.876L76.2198 55.74H78.7158L80.9478 63.876L83.0358 55.5H85.9398L82.4358 67.5H79.9398L77.4678 59.676L74.9958 67.5H72.4998ZM97.3205 67.74C96.1045 67.74 95.0805 67.456 94.2485 66.888C93.4245 66.32 92.8005 65.564 92.3765 64.62C91.9605 63.676 91.7525 62.644 91.7525 61.524C91.7525 60.404 91.9605 59.372 92.3765 58.428C92.8005 57.484 93.4245 56.728 94.2485 56.16C95.0805 55.592 96.1045 55.308 97.3205 55.308C98.2005 55.308 98.9445 55.456 99.5525 55.752C100.16 56.04 100.696 56.412 101.16 56.868L100.44 57.492V49.5H103.416V67.5H100.608L100.464 65.46L101.328 66.084C100.768 66.596 100.188 67 99.5885 67.296C98.9885 67.592 98.2325 67.74 97.3205 67.74ZM97.7525 65.292C98.4085 65.292 98.9445 65.132 99.3605 64.812C99.7765 64.492 100.084 64.052 100.284 63.492C100.484 62.924 100.584 62.268 100.584 61.524C100.584 60.78 100.484 60.128 100.284 59.568C100.084 59 99.7765 58.556 99.3605 58.236C98.9445 57.916 98.4085 57.756 97.7525 57.756C97.1285 57.756 96.5965 57.916 96.1565 58.236C95.7165 58.556 95.3805 59 95.1485 59.568C94.9165 60.128 94.8005 60.78 94.8005 61.524C94.8005 62.268 94.9165 62.924 95.1485 63.492C95.3805 64.052 95.7165 64.492 96.1565 64.812C96.5965 65.132 97.1285 65.292 97.7525 65.292ZM111.391 67.74C110.087 67.74 108.975 67.456 108.055 66.888C107.135 66.32 106.431 65.564 105.943 64.62C105.463 63.676 105.223 62.644 105.223 61.524C105.223 60.396 105.463 59.356 105.943 58.404C106.431 57.452 107.135 56.692 108.055 56.124C108.975 55.548 110.087 55.26 111.391 55.26C112.695 55.26 113.807 55.548 114.727 56.124C115.647 56.692 116.347 57.452 116.827 58.404C117.315 59.356 117.559 60.396 117.559 61.524C117.559 62.644 117.315 63.676 116.827 64.62C116.347 65.564 115.647 66.32 114.727 66.888C113.807 67.456 112.695 67.74 111.391 67.74ZM111.391 65.292C112.391 65.292 113.159 64.944 113.695 64.248C114.239 63.544 114.511 62.636 114.511 61.524C114.511 60.396 114.239 59.48 113.695 58.776C113.159 58.064 112.391 57.708 111.391 57.708C110.399 57.708 109.631 58.064 109.087 58.776C108.543 59.48 108.271 60.396 108.271 61.524C108.271 62.636 108.543 63.544 109.087 64.248C109.631 64.944 110.399 65.292 111.391 65.292ZM125.502 73.308L128.166 66.708L123.174 55.5H126.486L129.558 63.228L132.678 55.5H135.99L128.478 73.308H125.502ZM142.382 67.74C141.078 67.74 139.966 67.456 139.046 66.888C138.126 66.32 137.422 65.564 136.934 64.62C136.454 63.676 136.214 62.644 136.214 61.524C136.214 60.396 136.454 59.356 136.934 58.404C137.422 57.452 138.126 56.692 139.046 56.124C139.966 55.548 141.078 55.26 142.382 55.26C143.686 55.26 144.798 55.548 145.718 56.124C146.638 56.692 147.338 57.452 147.818 58.404C148.306 59.356 148.55 60.396 148.55 61.524C148.55 62.644 148.306 63.676 147.818 64.62C147.338 65.564 146.638 66.32 145.718 66.888C144.798 67.456 143.686 67.74 142.382 67.74ZM142.382 65.292C143.382 65.292 144.15 64.944 144.686 64.248C145.23 63.544 145.502 62.636 145.502 61.524C145.502 60.396 145.23 59.48 144.686 58.776C144.15 58.064 143.382 57.708 142.382 57.708C141.39 57.708 140.622 58.064 140.078 58.776C139.534 59.48 139.262 60.396 139.262 61.524C139.262 62.636 139.534 63.544 140.078 64.248C140.622 64.944 141.39 65.292 142.382 65.292ZM155.35 67.74C154.102 67.74 153.106 67.492 152.362 66.996C151.618 66.5 151.082 65.82 150.754 64.956C150.426 64.084 150.262 63.084 150.262 61.956V55.5H153.238V61.956C153.238 63.068 153.422 63.896 153.79 64.44C154.166 64.976 154.774 65.244 155.614 65.244C156.286 65.244 156.842 65.084 157.282 64.764C157.73 64.444 158.102 63.996 158.398 63.42L157.87 64.932V55.5H160.846V67.5H158.062L157.918 65.412L158.566 66.252C158.278 66.62 157.822 66.96 157.198 67.272C156.582 67.584 155.966 67.74 155.35 67.74ZM171.943 67.74C171.151 67.74 170.435 67.664 169.795 67.512C169.163 67.36 168.527 67.14 167.887 66.852L168.151 64.308C168.767 64.668 169.371 64.96 169.963 65.184C170.563 65.4 171.191 65.508 171.847 65.508C172.439 65.508 172.891 65.412 173.203 65.22C173.515 65.028 173.671 64.724 173.671 64.308C173.671 63.996 173.587 63.74 173.419 63.54C173.259 63.34 173.015 63.16 172.687 63C172.359 62.84 171.951 62.668 171.463 62.484C170.727 62.212 170.099 61.916 169.579 61.596C169.067 61.276 168.675 60.892 168.403 60.444C168.139 59.988 168.007 59.428 168.007 58.764C168.007 58.076 168.187 57.468 168.547 56.94C168.907 56.412 169.419 56 170.083 55.704C170.747 55.408 171.535 55.26 172.447 55.26C173.207 55.26 173.887 55.344 174.487 55.512C175.095 55.68 175.655 55.908 176.167 56.196L175.903 58.74C175.367 58.364 174.827 58.056 174.283 57.816C173.739 57.568 173.143 57.444 172.495 57.444C171.983 57.444 171.587 57.548 171.307 57.756C171.027 57.964 170.887 58.26 170.887 58.644C170.887 59.108 171.083 59.456 171.475 59.688C171.867 59.92 172.495 60.204 173.359 60.54C173.919 60.756 174.403 60.98 174.811 61.212C175.227 61.444 175.571 61.7 175.843 61.98C176.115 62.26 176.315 62.58 176.443 62.94C176.579 63.292 176.647 63.7 176.647 64.164C176.647 64.924 176.463 65.572 176.095 66.108C175.735 66.636 175.203 67.04 174.499 67.32C173.803 67.6 172.951 67.74 171.943 67.74ZM184.227 67.74C182.779 67.74 181.571 67.452 180.603 66.876C179.643 66.292 178.923 65.524 178.443 64.572C177.963 63.612 177.723 62.564 177.723 61.428C177.723 60.332 177.947 59.32 178.395 58.392C178.851 57.464 179.515 56.72 180.387 56.16C181.259 55.592 182.323 55.308 183.579 55.308C184.731 55.308 185.691 55.544 186.459 56.016C187.227 56.488 187.803 57.12 188.187 57.912C188.571 58.696 188.763 59.564 188.763 60.516C188.763 60.78 188.747 61.048 188.715 61.32C188.683 61.584 188.635 61.86 188.571 62.148H180.819C180.931 62.892 181.163 63.496 181.515 63.96C181.875 64.416 182.311 64.752 182.823 64.968C183.343 65.184 183.899 65.292 184.491 65.292C185.187 65.292 185.835 65.204 186.435 65.028C187.035 64.844 187.587 64.604 188.091 64.308L188.235 66.828C187.779 67.068 187.211 67.28 186.531 67.464C185.851 67.648 185.083 67.74 184.227 67.74ZM180.891 60.132H185.739C185.739 59.772 185.671 59.412 185.535 59.052C185.399 58.684 185.171 58.376 184.851 58.128C184.539 57.88 184.115 57.756 183.579 57.756C182.811 57.756 182.207 57.98 181.767 58.428C181.327 58.876 181.035 59.444 180.891 60.132ZM196.339 67.74C194.891 67.74 193.683 67.452 192.715 66.876C191.755 66.292 191.035 65.524 190.555 64.572C190.075 63.612 189.835 62.564 189.835 61.428C189.835 60.332 190.059 59.32 190.507 58.392C190.963 57.464 191.627 56.72 192.499 56.16C193.371 55.592 194.435 55.308 195.691 55.308C196.843 55.308 197.803 55.544 198.571 56.016C199.339 56.488 199.915 57.12 200.299 57.912C200.683 58.696 200.875 59.564 200.875 60.516C200.875 60.78 200.859 61.048 200.827 61.32C200.795 61.584 200.747 61.86 200.683 62.148H192.931C193.043 62.892 193.275 63.496 193.627 63.96C193.987 64.416 194.423 64.752 194.935 64.968C195.455 65.184 196.011 65.292 196.603 65.292C197.299 65.292 197.947 65.204 198.547 65.028C199.147 64.844 199.699 64.604 200.203 64.308L200.347 66.828C199.891 67.068 199.323 67.28 198.643 67.464C197.963 67.648 197.195 67.74 196.339 67.74ZM193.003 60.132H197.851C197.851 59.772 197.783 59.412 197.647 59.052C197.511 58.684 197.283 58.376 196.963 58.128C196.651 57.88 196.227 57.756 195.691 57.756C194.923 57.756 194.319 57.98 193.879 58.428C193.439 58.876 193.147 59.444 193.003 60.132ZM32.5169 93.5V76.7H38.4929C39.7809 76.7 40.8689 76.892 41.7569 77.276C42.6449 77.66 43.3169 78.252 43.7729 79.052C44.2369 79.852 44.4689 80.876 44.4689 82.124C44.4689 83.388 44.2409 84.432 43.7849 85.256C43.3289 86.072 42.6609 86.68 41.7809 87.08C40.9009 87.472 39.8289 87.668 38.5649 87.668H35.5889V93.5H32.5169ZM35.5889 85.1H38.2049C39.2529 85.1 40.0369 84.864 40.5569 84.392C41.0849 83.92 41.3489 83.18 41.3489 82.172C41.3489 81.164 41.0809 80.428 40.5449 79.964C40.0169 79.5 39.2129 79.268 38.1329 79.268H35.5889V85.1ZM51.2845 93.74C49.9805 93.74 48.8685 93.456 47.9485 92.888C47.0285 92.32 46.3245 91.564 45.8365 90.62C45.3565 89.676 45.1165 88.644 45.1165 87.524C45.1165 86.396 45.3565 85.356 45.8365 84.404C46.3245 83.452 47.0285 82.692 47.9485 82.124C48.8685 81.548 49.9805 81.26 51.2845 81.26C52.5885 81.26 53.7005 81.548 54.6205 82.124C55.5405 82.692 56.2405 83.452 56.7205 84.404C57.2085 85.356 57.4525 86.396 57.4525 87.524C57.4525 88.644 57.2085 89.676 56.7205 90.62C56.2405 91.564 55.5405 92.32 54.6205 92.888C53.7005 93.456 52.5885 93.74 51.2845 93.74ZM51.2845 91.292C52.2845 91.292 53.0525 90.944 53.5885 90.248C54.1325 89.544 54.4045 88.636 54.4045 87.524C54.4045 86.396 54.1325 85.48 53.5885 84.776C53.0525 84.064 52.2845 83.708 51.2845 83.708C50.2925 83.708 49.5245 84.064 48.9805 84.776C48.4365 85.48 48.1645 86.396 48.1645 87.524C48.1645 88.636 48.4365 89.544 48.9805 90.248C49.5245 90.944 50.2925 91.292 51.2845 91.292ZM59.284 93.5V81.5H62.068L62.14 82.772C62.444 82.436 62.872 82.1 63.424 81.764C63.976 81.428 64.58 81.26 65.236 81.26C65.428 81.26 65.604 81.276 65.764 81.308L65.548 84.236C65.372 84.188 65.196 84.156 65.02 84.14C64.852 84.124 64.684 84.116 64.516 84.116C64.012 84.116 63.552 84.232 63.136 84.464C62.72 84.696 62.428 84.98 62.26 85.316V93.5H59.284ZM70.8779 93.74C70.1259 93.74 69.5139 93.588 69.0419 93.284C68.5699 92.972 68.2219 92.576 67.9979 92.096C67.7739 91.616 67.6619 91.116 67.6619 90.596V83.948H65.9579L66.2219 81.5H67.6619V78.86L70.6379 78.548V81.5H73.2779V83.948H70.6379V89.372C70.6379 89.98 70.6739 90.42 70.7459 90.692C70.8179 90.956 70.9819 91.124 71.2379 91.196C71.4939 91.26 71.9019 91.292 72.4619 91.292H73.2779L73.0139 93.74H70.8779ZM78.0479 93.74C77.3359 93.74 76.7519 93.6 76.2959 93.32C75.8479 93.032 75.5159 92.652 75.2999 92.18C75.0839 91.7 74.9759 91.172 74.9759 90.596V75.5H77.9519V89.372C77.9519 90.012 77.9879 90.468 78.0599 90.74C78.1399 91.004 78.2839 91.164 78.4919 91.22C78.6999 91.268 78.9999 91.292 79.3919 91.292L79.1279 93.74H78.0479ZM83.6326 93.74C82.9926 93.74 82.4086 93.6 81.8806 93.32C81.3526 93.032 80.9326 92.62 80.6206 92.084C80.3086 91.548 80.1526 90.9 80.1526 90.14C80.1526 89.46 80.3086 88.88 80.6206 88.4C80.9406 87.912 81.3566 87.508 81.8686 87.188C82.3886 86.86 82.9486 86.604 83.5486 86.42C84.1566 86.228 84.7526 86.088 85.3366 86C85.9286 85.912 86.4486 85.86 86.8966 85.844C86.8646 85.156 86.6886 84.656 86.3686 84.344C86.0486 84.032 85.5046 83.876 84.7366 83.876C84.2006 83.876 83.6766 83.952 83.1646 84.104C82.6606 84.248 82.0886 84.476 81.4486 84.788L81.1846 82.364C81.9046 82.012 82.6246 81.748 83.3446 81.572C84.0726 81.396 84.8086 81.308 85.5526 81.308C86.4486 81.308 87.2206 81.468 87.8686 81.788C88.5166 82.108 89.0166 82.624 89.3686 83.336C89.7206 84.04 89.8966 84.972 89.8966 86.132V89.372C89.8966 89.972 89.9246 90.408 89.9806 90.68C90.0366 90.944 90.1406 91.112 90.2926 91.184C90.4446 91.256 90.6646 91.292 90.9526 91.292H91.3366L91.0726 93.74H89.9926C89.5446 93.74 89.1446 93.68 88.7926 93.56C88.4486 93.448 88.1526 93.288 87.9046 93.08C87.6566 92.872 87.4566 92.628 87.3046 92.348C86.9126 92.788 86.3806 93.132 85.7086 93.38C85.0446 93.62 84.3526 93.74 83.6326 93.74ZM84.8806 91.46C85.1446 91.46 85.4726 91.392 85.8646 91.256C86.2566 91.112 86.6086 90.892 86.9206 90.596V87.86C86.3606 87.884 85.8006 87.976 85.2406 88.136C84.6806 88.296 84.2126 88.532 83.8366 88.844C83.4606 89.156 83.2726 89.548 83.2726 90.02C83.2726 90.508 83.4006 90.872 83.6566 91.112C83.9126 91.344 84.3206 91.46 84.8806 91.46ZM92.7537 93.5V81.5H95.5377L95.6577 83.732L94.9617 82.82C95.4177 82.436 95.9617 82.088 96.5937 81.776C97.2257 81.464 97.9617 81.308 98.8017 81.308C100.338 81.308 101.478 81.82 102.222 82.844C102.966 83.86 103.338 85.18 103.338 86.804V93.5H100.362V87.044C100.362 85.924 100.174 85.096 99.7977 84.56C99.4297 84.024 98.8257 83.756 97.9857 83.756C97.3057 83.756 96.7497 83.924 96.3177 84.26C95.8857 84.588 95.5057 85.028 95.1777 85.58L95.7297 84.116V93.5H92.7537ZM110.604 93.74C109.388 93.74 108.364 93.456 107.532 92.888C106.708 92.32 106.084 91.564 105.66 90.62C105.244 89.676 105.036 88.644 105.036 87.524C105.036 86.404 105.244 85.372 105.66 84.428C106.084 83.484 106.708 82.728 107.532 82.16C108.364 81.592 109.388 81.308 110.604 81.308C111.484 81.308 112.228 81.456 112.836 81.752C113.444 82.04 113.98 82.412 114.444 82.868L113.724 83.492V75.5H116.7V93.5H113.892L113.748 91.46L114.612 92.084C114.052 92.596 113.472 93 112.872 93.296C112.272 93.592 111.516 93.74 110.604 93.74ZM111.036 91.292C111.692 91.292 112.228 91.132 112.644 90.812C113.06 90.492 113.368 90.052 113.568 89.492C113.768 88.924 113.868 88.268 113.868 87.524C113.868 86.78 113.768 86.128 113.568 85.568C113.368 85 113.06 84.556 112.644 84.236C112.228 83.916 111.692 83.756 111.036 83.756C110.412 83.756 109.88 83.916 109.44 84.236C109 84.556 108.664 85 108.432 85.568C108.2 86.128 108.084 86.78 108.084 87.524C108.084 88.268 108.2 88.924 108.432 89.492C108.664 90.052 109 90.492 109.44 90.812C109.88 91.132 110.412 91.292 111.036 91.292ZM120.571 82.844H119.179L120.211 79.964H118.987V76.7H122.107V79.676L120.571 82.844ZM127.059 93.74C126.267 93.74 125.551 93.664 124.911 93.512C124.279 93.36 123.643 93.14 123.003 92.852L123.267 90.308C123.883 90.668 124.487 90.96 125.079 91.184C125.679 91.4 126.307 91.508 126.963 91.508C127.555 91.508 128.007 91.412 128.319 91.22C128.631 91.028 128.787 90.724 128.787 90.308C128.787 89.996 128.703 89.74 128.535 89.54C128.375 89.34 128.131 89.16 127.803 89C127.475 88.84 127.067 88.668 126.579 88.484C125.843 88.212 125.215 87.916 124.695 87.596C124.183 87.276 123.791 86.892 123.519 86.444C123.255 85.988 123.123 85.428 123.123 84.764C123.123 84.076 123.303 83.468 123.663 82.94C124.023 82.412 124.535 82 125.199 81.704C125.863 81.408 126.651 81.26 127.563 81.26C128.323 81.26 129.003 81.344 129.603 81.512C130.211 81.68 130.771 81.908 131.283 82.196L131.019 84.74C130.483 84.364 129.943 84.056 129.399 83.816C128.855 83.568 128.259 83.444 127.611 83.444C127.099 83.444 126.703 83.548 126.423 83.756C126.143 83.964 126.003 84.26 126.003 84.644C126.003 85.108 126.199 85.456 126.591 85.688C126.983 85.92 127.611 86.204 128.475 86.54C129.035 86.756 129.519 86.98 129.927 87.212C130.343 87.444 130.687 87.7 130.959 87.98C131.231 88.26 131.431 88.58 131.559 88.94C131.695 89.292 131.763 89.7 131.763 90.164C131.763 90.924 131.579 91.572 131.211 92.108C130.851 92.636 130.319 93.04 129.615 93.32C128.919 93.6 128.067 93.74 127.059 93.74ZM139.43 93.5V83.948H137.726L137.99 81.5H139.43V78.956C139.43 77.9 139.742 77.06 140.366 76.436C140.998 75.812 141.902 75.5 143.078 75.5C143.462 75.5 143.814 75.52 144.134 75.56C144.462 75.6 144.758 75.652 145.022 75.716L144.758 78.116C144.638 78.076 144.506 78.048 144.362 78.032C144.218 78.008 144.038 77.996 143.822 77.996C143.39 77.996 143.046 78.112 142.79 78.344C142.534 78.576 142.406 78.956 142.406 79.484V81.5H145.046V83.948H142.406V93.5H139.43ZM151.594 93.74C150.346 93.74 149.35 93.492 148.606 92.996C147.862 92.5 147.326 91.82 146.998 90.956C146.67 90.084 146.506 89.084 146.506 87.956V81.5H149.482V87.956C149.482 89.068 149.666 89.896 150.034 90.44C150.41 90.976 151.018 91.244 151.858 91.244C152.53 91.244 153.086 91.084 153.526 90.764C153.974 90.444 154.346 89.996 154.642 89.42L154.114 90.932V81.5H157.09V93.5H154.306L154.162 91.412L154.81 92.252C154.522 92.62 154.066 92.96 153.442 93.272C152.826 93.584 152.21 93.74 151.594 93.74ZM163.54 93.74C162.788 93.74 162.176 93.588 161.704 93.284C161.232 92.972 160.884 92.576 160.66 92.096C160.436 91.616 160.324 91.116 160.324 90.596V83.948H158.62L158.884 81.5H160.324V78.86L163.3 78.548V81.5H165.94V83.948H163.3V89.372C163.3 89.98 163.336 90.42 163.408 90.692C163.48 90.956 163.644 91.124 163.9 91.196C164.156 91.26 164.564 91.292 165.124 91.292H165.94L165.676 93.74H163.54ZM172.606 93.74C171.358 93.74 170.362 93.492 169.618 92.996C168.874 92.5 168.338 91.82 168.01 90.956C167.682 90.084 167.518 89.084 167.518 87.956V81.5H170.494V87.956C170.494 89.068 170.678 89.896 171.046 90.44C171.422 90.976 172.03 91.244 172.87 91.244C173.542 91.244 174.098 91.084 174.538 90.764C174.986 90.444 175.358 89.996 175.654 89.42L175.126 90.932V81.5H178.102V93.5H175.318L175.174 91.412L175.822 92.252C175.534 92.62 175.078 92.96 174.454 93.272C173.838 93.584 173.222 93.74 172.606 93.74ZM180.641 93.5V81.5H183.425L183.497 82.772C183.801 82.436 184.229 82.1 184.781 81.764C185.333 81.428 185.937 81.26 186.593 81.26C186.785 81.26 186.961 81.276 187.121 81.308L186.905 84.236C186.729 84.188 186.553 84.156 186.377 84.14C186.209 84.124 186.041 84.116 185.873 84.116C185.369 84.116 184.909 84.232 184.493 84.464C184.077 84.696 183.785 84.98 183.617 85.316V93.5H180.641ZM193.896 93.74C192.448 93.74 191.24 93.452 190.272 92.876C189.312 92.292 188.592 91.524 188.112 90.572C187.632 89.612 187.392 88.564 187.392 87.428C187.392 86.332 187.616 85.32 188.064 84.392C188.52 83.464 189.184 82.72 190.056 82.16C190.928 81.592 191.992 81.308 193.248 81.308C194.4 81.308 195.36 81.544 196.128 82.016C196.896 82.488 197.472 83.12 197.856 83.912C198.24 84.696 198.432 85.564 198.432 86.516C198.432 86.78 198.416 87.048 198.384 87.32C198.352 87.584 198.304 87.86 198.24 88.148H190.488C190.6 88.892 190.832 89.496 191.184 89.96C191.544 90.416 191.98 90.752 192.492 90.968C193.012 91.184 193.568 91.292 194.16 91.292C194.856 91.292 195.504 91.204 196.104 91.028C196.704 90.844 197.256 90.604 197.76 90.308L197.904 92.828C197.448 93.068 196.88 93.28 196.2 93.464C195.52 93.648 194.752 93.74 193.896 93.74ZM190.56 86.132H195.408C195.408 85.772 195.34 85.412 195.204 85.052C195.068 84.684 194.84 84.376 194.52 84.128C194.208 83.88 193.784 83.756 193.248 83.756C192.48 83.756 191.876 83.98 191.436 84.428C190.996 84.876 190.704 85.444 190.56 86.132ZM201.104 88.532V88.292C201.104 87.668 201.196 87.124 201.38 86.66C201.564 86.188 201.804 85.764 202.1 85.388C202.404 85.012 202.728 84.652 203.072 84.308C203.672 83.708 204.144 83.188 204.488 82.748C204.84 82.3 205.016 81.764 205.016 81.14C205.016 80.756 204.928 80.428 204.752 80.156C204.576 79.884 204.328 79.676 204.008 79.532C203.688 79.388 203.312 79.316 202.88 79.316C202.232 79.316 201.632 79.404 201.08 79.58C200.528 79.748 199.976 79.964 199.424 80.228L199.088 77.396C199.712 77.092 200.372 76.844 201.068 76.652C201.772 76.46 202.616 76.364 203.6 76.364C204.592 76.364 205.444 76.548 206.156 76.916C206.868 77.284 207.416 77.788 207.8 78.428C208.184 79.068 208.376 79.796 208.376 80.612C208.376 81.172 208.28 81.688 208.088 82.16C207.896 82.624 207.628 83.072 207.284 83.504C206.948 83.936 206.552 84.38 206.096 84.836C205.608 85.324 205.176 85.828 204.8 86.348C204.432 86.86 204.248 87.46 204.248 88.148V88.532H201.104ZM201.104 93.5V90.236H204.224V93.5H201.104Z" fill="white"/>
<path d="M125.466 176.167C122.664 179.67 117.336 179.67 114.534 176.167L88 143L152 143L125.466 176.167Z" fill="#F1693A"/>
</svg>
